<svg xmlns="http://www.w3.org/2000/svg" xmlns:xlink="http://www.w3.org/1999/xlink" width="2000" height="600" preserveAspectRatio="xMidYMid meet" version="1.0" viewBox="0 0 1500 450" zoomAndPan="magnify"><defs><clipPath id="5ecc678a0c"><path d="M 1335.742188 161.210938 L 1468.371094 161.210938 L 1468.371094 293.839844 L 1335.742188 293.839844 Z M 1335.742188 161.210938" clip-rule="nonzero"/></clipPath><clipPath id="9bb217fdb0"><path d="M 1402.058594 161.210938 C 1365.433594 161.210938 1335.742188 190.898438 1335.742188 227.523438 C 1335.742188 264.148438 1365.433594 293.839844 1402.058594 293.839844 C 1438.683594 293.839844 1468.371094 264.148438 1468.371094 227.523438 C 1468.371094 190.898438 1438.683594 161.210938 1402.058594 161.210938" clip-rule="nonzero"/></clipPath><clipPath id="63fc3b46e9"><path d="M 1361 186 L 1419 186 L 1419 243 L 1361 243 Z M 1361 186" clip-rule="nonzero"/></clipPath><clipPath id="11ad6497e9"><path d="M 1350.007812 213.234375 L 1391.714844 174.382812 L 1454.082031 241.339844 L 1412.371094 280.1875 Z M 1350.007812 213.234375" clip-rule="nonzero"/></clipPath><clipPath id="5cdbf59d9c"><path d="M 1350.007812 213.234375 L 1391.714844 174.382812 L 1454.082031 241.339844 L 1412.371094 280.1875 Z M 1350.007812 213.234375" clip-rule="nonzero"/></clipPath><clipPath id="c6058004ae"><path d="M 1405 231 L 1419 231 L 1419 245 L 1405 245 Z M 1405 231" clip-rule="nonzero"/></clipPath><clipPath id="e1e82fbdf7"><path d="M 1350.007812 213.234375 L 1391.714844 174.382812 L 1454.082031 241.339844 L 1412.371094 280.1875 Z M 1350.007812 213.234375" clip-rule="nonzero"/></clipPath><clipPath id="2310d3972a"><path d="M 1350.007812 213.234375 L 1391.714844 174.382812 L 1454.082031 241.339844 L 1412.371094 280.1875 Z M 1350.007812 213.234375" clip-rule="nonzero"/></clipPath><clipPath id="ed063045a7"><path d="M 1412 239 L 1436 239 L 1436 263 L 1412 263 Z M 1412 239" clip-rule="nonzero"/></clipPath><clipPath id="dc68b69ac9"><path d="M 1350.007812 213.234375 L 1391.714844 174.382812 L 1454.082031 241.339844 L 1412.371094 280.1875 Z M 1350.007812 213.234375" clip-rule="nonzero"/></clipPath><clipPath id="e14973bab9"><path d="M 1350.007812 213.234375 L 1391.714844 174.382812 L 1454.082031 241.339844 L 1412.371094 280.1875 Z M 1350.007812 213.234375" clip-rule="nonzero"/></clipPath><clipPath id="328f3c8e3d"><path d="M 1369 200 L 1379 200 L 1379 228 L 1369 228 Z M 1369 200" clip-rule="nonzero"/></clipPath><clipPath id="5d5bff73b8"><path d="M 1350.007812 213.234375 L 1391.714844 174.382812 L 1454.082031 241.339844 L 1412.371094 280.1875 Z M 1350.007812 213.234375" clip-rule="nonzero"/></clipPath><clipPath id="c04db590b5"><path d="M 1350.007812 213.234375 L 1391.714844 174.382812 L 1454.082031 241.339844 L 1412.371094 280.1875 Z M 1350.007812 213.234375" clip-rule="nonzero"/></clipPath><clipPath id="9dd86aceb8"><path d="M 380.023438 188 L 423.351562 188 L 423.351562 293.828125 L 380.023438 293.828125 Z M 380.023438 188" clip-rule="nonzero"/></clipPath><clipPath id="cd1aa00fac"><path d="M 409 290.402344 C 406.796875 292.472656 404.285156 293.828125 401.820312 293.828125 C 399.359375 293.828125 396.988281 292.664062 394.808594 290.597656 C 394.761719 290.53125 394.714844 290.53125 394.667969 290.46875 C 386.46875 282.199219 380.429688 260.359375 380.3125 235.734375 L 380.3125 188.125 L 423.351562 188.125 L 423.351562 235.699219 C 423.234375 260.488281 417.289062 282.328125 409 290.402344" clip-rule="nonzero"/></clipPath><clipPath id="a444374de2"><path d="M 380.320312 133.753906 L 423.359375 133.753906 L 423.359375 176.792969 L 380.320312 176.792969 Z M 380.320312 133.753906" clip-rule="nonzero"/></clipPath><clipPath id="d85cc508ee"><path d="M 401.839844 133.753906 C 389.953125 133.753906 380.320312 143.386719 380.320312 155.273438 C 380.320312 167.15625 389.953125 176.792969 401.839844 176.792969 C 413.722656 176.792969 423.359375 167.15625 423.359375 155.273438 C 423.359375 143.386719 413.722656 133.753906 401.839844 133.753906" clip-rule="nonzero"/></clipPath></defs><rect width="1800" height="540" x="-150" y="-45" fill="#fff" fill-opacity="1"/><rect width="1800" height="540" x="-150" y="-45" fill="#fff" fill-opacity="1"/><rect width="1800" height="540" x="-150" y="-45" fill="#fff" fill-opacity="1"/><g clip-path="url(#5ecc678a0c)"><g clip-path="url(#9bb217fdb0)"><path fill="#1b294b" fill-opacity="1" fill-rule="nonzero" d="M 1335.742188 161.210938 L 1468.371094 161.210938 L 1468.371094 293.839844 L 1335.742188 293.839844 Z M 1335.742188 161.210938"/></g></g><g clip-path="url(#63fc3b46e9)"><g clip-path="url(#11ad6497e9)"><g clip-path="url(#5cdbf59d9c)"><path fill="#fff" fill-opacity="1" fill-rule="nonzero" d="M 1370.863281 193.8125 C 1376.625 188.449219 1383.992188 185.90625 1391.25 186.128906 C 1398.503906 186.355469 1405.652344 189.347656 1410.96875 195.050781 C 1416.28125 200.757812 1418.757812 208.097656 1418.46875 215.351562 C 1418.175781 222.609375 1415.117188 229.777344 1409.359375 235.140625 C 1403.601562 240.503906 1396.234375 243.046875 1388.976562 242.824219 C 1381.71875 242.601562 1374.574219 239.609375 1369.257812 233.902344 C 1363.941406 228.195312 1361.464844 220.855469 1361.757812 213.601562 C 1362.046875 206.347656 1365.105469 199.175781 1370.863281 193.8125 Z M 1391.0625 190.738281 C 1384.988281 190.550781 1378.816406 192.679688 1373.996094 197.171875 C 1369.171875 201.664062 1366.609375 207.667969 1366.367188 213.742188 C 1366.125 219.820312 1368.199219 225.964844 1372.648438 230.742188 C 1377.101562 235.523438 1383.082031 238.027344 1389.160156 238.214844 C 1395.238281 238.402344 1401.40625 236.273438 1406.230469 231.78125 C 1411.050781 227.289062 1413.613281 221.285156 1413.859375 215.210938 C 1414.101562 209.136719 1412.027344 202.988281 1407.574219 198.210938 C 1403.125 193.433594 1397.140625 190.925781 1391.0625 190.738281 Z M 1391.0625 190.738281"/></g></g></g><g clip-path="url(#c6058004ae)"><g clip-path="url(#e1e82fbdf7)"><g clip-path="url(#2310d3972a)"><path fill="#fff" fill-opacity="1" fill-rule="evenodd" d="M 1405.441406 235.492188 L 1409.988281 231.257812 L 1418.046875 239.910156 L 1413.503906 244.144531 Z M 1405.441406 235.492188"/></g></g></g><g clip-path="url(#ed063045a7)"><g clip-path="url(#dc68b69ac9)"><g clip-path="url(#e14973bab9)"><path fill="#fff" fill-opacity="1" fill-rule="evenodd" d="M 1414.679688 240.851562 C 1417.222656 238.480469 1421.226562 238.605469 1423.574219 241.125 L 1433.582031 251.867188 C 1435.929688 254.386719 1435.769531 258.390625 1433.222656 260.761719 C 1430.679688 263.132812 1426.675781 263.007812 1424.328125 260.484375 L 1414.320312 249.742188 C 1411.972656 247.222656 1412.132812 243.21875 1414.679688 240.851562 Z M 1414.679688 240.851562"/></g></g></g><g clip-path="url(#328f3c8e3d)"><g clip-path="url(#5d5bff73b8)"><g clip-path="url(#c04db590b5)"><path fill="#fff" fill-opacity="1" fill-rule="nonzero" d="M 1373.804688 226.457031 C 1371.066406 222.722656 1369.804688 218.265625 1369.980469 213.855469 C 1370.15625 209.445312 1371.777344 205.078125 1374.804688 201.519531 C 1375.210938 201.042969 1375.746094 200.789062 1376.371094 200.769531 C 1376.996094 200.753906 1377.539062 200.980469 1377.964844 201.4375 L 1378.226562 201.71875 C 1378.957031 202.5 1378.980469 203.699219 1378.28125 204.523438 C 1375.964844 207.257812 1374.726562 210.609375 1374.589844 213.996094 C 1374.453125 217.386719 1375.421875 220.804688 1377.515625 223.675781 C 1378.144531 224.542969 1378.027344 225.734375 1377.234375 226.472656 L 1376.949219 226.738281 C 1376.492188 227.164062 1375.929688 227.359375 1375.308594 227.300781 C 1374.6875 227.246094 1374.171875 226.957031 1373.804688 226.457031 Z M 1373.804688 226.457031"/></g></g></g><g clip-path="url(#9dd86aceb8)"><g clip-path="url(#cd1aa00fac)"><path fill="#6e00be" fill-opacity="1" fill-rule="nonzero" d="M 423.351562 293.828125 L 380.023438 293.828125 L 380.023438 188.925781 L 423.351562 188.925781 Z M 423.351562 293.828125"/></g></g><g clip-path="url(#a444374de2)"><g clip-path="url(#d85cc508ee)"><path fill="#6e00be" fill-opacity="1" fill-rule="nonzero" d="M 380.320312 133.753906 L 423.359375 133.753906 L 423.359375 176.792969 L 380.320312 176.792969 Z M 380.320312 133.753906"/></g></g><g fill="#6e00be" fill-opacity="1"><g><g><path d="M 76.734375 0 L 44.921875 0 L 44.921875 -123.5 L 4.203125 -123.5 L 4.203125 -149.96875 L 117.453125 -149.96875 L 117.453125 -123.5 L 76.734375 -123.5 Z M 76.734375 0" transform="translate(31.638927, 295.568178)"/></g></g><g><g><path d="M 80.421875 -116.828125 C 84.660156 -116.828125 88.179688 -116.519531 90.984375 -115.90625 L 88.625 -86.578125 C 86.09375 -87.253906 83.015625 -87.59375 79.390625 -87.59375 C 69.410156 -87.59375 61.632812 -85.03125 56.0625 -79.90625 C 50.488281 -74.78125 47.703125 -67.597656 47.703125 -58.359375 L 47.703125 0 L 16.40625 0 L 16.40625 -114.6875 L 40.109375 -114.6875 L 44.71875 -95.390625 L 46.265625 -95.390625 C 49.816406 -101.828125 54.617188 -107.007812 60.671875 -110.9375 C 66.722656 -114.863281 73.304688 -116.828125 80.421875 -116.828125 Z M 80.421875 -116.828125" transform="translate(153.29834, 295.568178)"/></g></g><g><g><path d="M 89.234375 0 L 83.1875 -15.59375 L 82.375 -15.59375 C 77.101562 -8.957031 71.679688 -4.359375 66.109375 -1.796875 C 60.535156 0.765625 53.269531 2.046875 44.3125 2.046875 C 33.300781 2.046875 24.632812 -1.097656 18.3125 -7.390625 C 11.988281 -13.679688 8.828125 -22.640625 8.828125 -34.265625 C 8.828125 -46.429688 13.082031 -55.40625 21.59375 -61.1875 C 30.101562 -66.96875 42.941406 -70.164062 60.109375 -70.78125 L 80.015625 -71.390625 L 80.015625 -76.421875 C 80.015625 -88.046875 74.0625 -93.859375 62.15625 -93.859375 C 53 -93.859375 42.226562 -91.085938 29.84375 -85.546875 L 19.484375 -106.6875 C 32.679688 -113.59375 47.316406 -117.046875 63.390625 -117.046875 C 78.773438 -117.046875 90.570312 -113.691406 98.78125 -106.984375 C 106.988281 -100.285156 111.09375 -90.097656 111.09375 -76.421875 L 111.09375 0 Z M 80.015625 -53.140625 L 67.90625 -52.71875 C 58.8125 -52.445312 52.039062 -50.804688 47.59375 -47.796875 C 43.144531 -44.785156 40.921875 -40.207031 40.921875 -34.0625 C 40.921875 -25.238281 45.984375 -20.828125 56.109375 -20.828125 C 63.359375 -20.828125 69.15625 -22.910156 73.5 -27.078125 C 77.84375 -31.253906 80.015625 -36.796875 80.015625 -43.703125 Z M 80.015625 -53.140625" transform="translate(248.697374, 295.568178)"/></g></g></g><g fill="#6e00be" fill-opacity="1"><g><g><path d="M 122.265625 0 L 90.984375 0 L 90.984375 -66.984375 C 90.984375 -75.253906 89.515625 -81.457031 86.578125 -85.59375 C 83.640625 -89.738281 78.953125 -91.8125 72.515625 -91.8125 C 63.765625 -91.8125 57.441406 -88.882812 53.546875 -83.03125 C 49.648438 -77.1875 47.703125 -67.492188 47.703125 -53.953125 L 47.703125 0 L 16.40625 0 L 16.40625 -114.6875 L 40.3125 -114.6875 L 44.515625 -100.015625 L 46.265625 -100.015625 C 49.753906 -105.554688 54.554688 -109.742188 60.671875 -112.578125 C 66.796875 -115.410156 73.753906 -116.828125 81.546875 -116.828125 C 94.878906 -116.828125 105 -113.21875 111.90625 -106 C 118.8125 -98.789062 122.265625 -88.382812 122.265625 -74.78125 Z M 122.265625 0" transform="translate(430.160682, 295.568178)"/></g></g><g><g><path d="M 63.90625 -94.578125 C 57.269531 -94.578125 52.070312 -92.472656 48.3125 -88.265625 C 44.550781 -84.054688 42.394531 -78.09375 41.84375 -70.375 L 85.75 -70.375 C 85.613281 -78.09375 83.597656 -84.054688 79.703125 -88.265625 C 75.804688 -92.472656 70.539062 -94.578125 63.90625 -94.578125 Z M 68.3125 2.046875 C 49.851562 2.046875 35.425781 -3.046875 25.03125 -13.234375 C 14.632812 -23.421875 9.4375 -37.847656 9.4375 -56.515625 C 9.4375 -75.734375 14.238281 -90.585938 23.84375 -101.078125 C 33.457031 -111.578125 46.742188 -116.828125 63.703125 -116.828125 C 79.910156 -116.828125 92.523438 -112.210938 101.546875 -102.984375 C 110.578125 -93.753906 115.09375 -81 115.09375 -64.71875 L 115.09375 -49.546875 L 41.140625 -49.546875 C 41.472656 -40.648438 44.101562 -33.707031 49.03125 -28.71875 C 53.957031 -23.726562 60.863281 -21.234375 69.75 -21.234375 C 76.65625 -21.234375 83.1875 -21.953125 89.34375 -23.390625 C 95.5 -24.828125 101.925781 -27.117188 108.625 -30.265625 L 108.625 -6.046875 C 103.15625 -3.316406 97.304688 -1.285156 91.078125 0.046875 C 84.859375 1.378906 77.269531 2.046875 68.3125 2.046875 Z M 68.3125 2.046875" transform="translate(568.232832, 295.568178)"/></g></g></g><g fill="#6e00be" fill-opacity="1"><g><g><path d="M 80.421875 -116.828125 C 84.660156 -116.828125 88.179688 -116.519531 90.984375 -115.90625 L 88.625 -86.578125 C 86.09375 -87.253906 83.015625 -87.59375 79.390625 -87.59375 C 69.410156 -87.59375 61.632812 -85.03125 56.0625 -79.90625 C 50.488281 -74.78125 47.703125 -67.597656 47.703125 -58.359375 L 47.703125 0 L 16.40625 0 L 16.40625 -114.6875 L 40.109375 -114.6875 L 44.71875 -95.390625 L 46.265625 -95.390625 C 49.816406 -101.828125 54.617188 -107.007812 60.671875 -110.9375 C 66.722656 -114.863281 73.304688 -116.828125 80.421875 -116.828125 Z M 80.421875 -116.828125" transform="translate(692.354186, 295.568178)"/></g></g></g><g fill="#1b294b" fill-opacity="1"><g><g><path d="M 143.296875 -76.421875 C 143.296875 -51.734375 136.269531 -32.820312 122.21875 -19.6875 C 108.164062 -6.5625 87.875 0 61.34375 0 L 18.875 0 L 18.875 -149.96875 L 65.953125 -149.96875 C 90.441406 -149.96875 109.453125 -143.503906 122.984375 -130.578125 C 136.523438 -117.648438 143.296875 -99.597656 143.296875 -76.421875 Z M 110.265625 -75.59375 C 110.265625 -107.800781 96.039062 -123.90625 67.59375 -123.90625 L 50.671875 -123.90625 L 50.671875 -26.265625 L 64.3125 -26.265625 C 94.945312 -26.265625 110.265625 -42.707031 110.265625 -75.59375 Z M 110.265625 -75.59375" transform="translate(787.748482, 295.568178)"/></g></g><g><g><path d="M 63.90625 -94.578125 C 57.269531 -94.578125 52.070312 -92.472656 48.3125 -88.265625 C 44.550781 -84.054688 42.394531 -78.09375 41.84375 -70.375 L 85.75 -70.375 C 85.613281 -78.09375 83.597656 -84.054688 79.703125 -88.265625 C 75.804688 -92.472656 70.539062 -94.578125 63.90625 -94.578125 Z M 68.3125 2.046875 C 49.851562 2.046875 35.425781 -3.046875 25.03125 -13.234375 C 14.632812 -23.421875 9.4375 -37.847656 9.4375 -56.515625 C 9.4375 -75.734375 14.238281 -90.585938 23.84375 -101.078125 C 33.457031 -111.578125 46.742188 -116.828125 63.703125 -116.828125 C 79.910156 -116.828125 92.523438 -112.210938 101.546875 -102.984375 C 110.578125 -93.753906 115.09375 -81 115.09375 -64.71875 L 115.09375 -49.546875 L 41.140625 -49.546875 C 41.472656 -40.648438 44.101562 -33.707031 49.03125 -28.71875 C 53.957031 -23.726562 60.863281 -21.234375 69.75 -21.234375 C 76.65625 -21.234375 83.1875 -21.953125 89.34375 -23.390625 C 95.5 -24.828125 101.925781 -27.117188 108.625 -30.265625 L 108.625 -6.046875 C 103.15625 -3.316406 97.304688 -1.285156 91.078125 0.046875 C 84.859375 1.378906 77.269531 2.046875 68.3125 2.046875 Z M 68.3125 2.046875" transform="translate(943.259167, 295.568178)"/></g></g><g><g><path d="M 46.46875 -62.359375 L 60.109375 -79.8125 L 92.21875 -114.6875 L 127.5 -114.6875 L 81.953125 -64.9375 L 130.265625 0 L 94.171875 0 L 61.140625 -46.46875 L 47.703125 -35.703125 L 47.703125 0 L 16.40625 0 L 16.40625 -159.609375 L 47.703125 -159.609375 L 47.703125 -88.421875 L 46.0625 -62.359375 Z M 46.46875 -62.359375" transform="translate(1067.380491, 295.568178)"/></g></g><g><g><path d="M 122.265625 0 L 90.984375 0 L 90.984375 -66.984375 C 90.984375 -83.535156 84.828125 -91.8125 72.515625 -91.8125 C 63.765625 -91.8125 57.441406 -88.832031 53.546875 -82.875 C 49.648438 -76.925781 47.703125 -67.285156 47.703125 -53.953125 L 47.703125 0 L 16.40625 0 L 16.40625 -159.609375 L 47.703125 -159.609375 L 47.703125 -127.09375 C 47.703125 -124.5625 47.460938 -118.613281 46.984375 -109.25 L 46.265625 -100.015625 L 47.90625 -100.015625 C 54.875 -111.222656 65.953125 -116.828125 81.140625 -116.828125 C 94.609375 -116.828125 104.828125 -113.203125 111.796875 -105.953125 C 118.773438 -98.710938 122.265625 -88.320312 122.265625 -74.78125 Z M 122.265625 0" transform="translate(1197.656593, 295.568178)"/></g></g></g></svg>