<svg xmlns="http://www.w3.org/2000/svg" xmlns:xlink="http://www.w3.org/1999/xlink" width="2000" height="600" preserveAspectRatio="xMidYMid meet" version="1.0" viewBox="0 0 1500 450" zoomAndPan="magnify"><defs><clipPath id="4969ac8dcf"><path d="M 1325.960938 174.75 L 1455 174.75 L 1455 303.789062 L 1325.960938 303.789062 Z M 1325.960938 174.75" clip-rule="nonzero"/></clipPath><clipPath id="2363aa9ba3"><path d="M 1390.480469 174.75 C 1354.847656 174.75 1325.960938 203.636719 1325.960938 239.269531 C 1325.960938 274.902344 1354.847656 303.789062 1390.480469 303.789062 C 1426.113281 303.789062 1455 274.902344 1455 239.269531 C 1455 203.636719 1426.113281 174.75 1390.480469 174.75" clip-rule="nonzero"/></clipPath><clipPath id="cbef71835a"><path d="M 1351 198 L 1407 198 L 1407 255 L 1351 255 Z M 1351 198" clip-rule="nonzero"/></clipPath><clipPath id="638797b88e"><path d="M 1339.839844 225.371094 L 1380.449219 187.542969 L 1441.28125 252.851562 L 1400.667969 290.679688 Z M 1339.839844 225.371094" clip-rule="nonzero"/></clipPath><clipPath id="523773b6fe"><path d="M 1339.839844 225.371094 L 1380.449219 187.542969 L 1441.28125 252.851562 L 1400.667969 290.679688 Z M 1339.839844 225.371094" clip-rule="nonzero"/></clipPath><clipPath id="554476470a"><path d="M 1393 242 L 1407 242 L 1407 256 L 1393 256 Z M 1393 242" clip-rule="nonzero"/></clipPath><clipPath id="ca5a23f51d"><path d="M 1339.839844 225.371094 L 1380.449219 187.542969 L 1441.28125 252.851562 L 1400.667969 290.679688 Z M 1339.839844 225.371094" clip-rule="nonzero"/></clipPath><clipPath id="8d4597abe8"><path d="M 1339.839844 225.371094 L 1380.449219 187.542969 L 1441.28125 252.851562 L 1400.667969 290.679688 Z M 1339.839844 225.371094" clip-rule="nonzero"/></clipPath><clipPath id="38e2dcdc7b"><path d="M 1400 250 L 1423 250 L 1423 274 L 1400 274 Z M 1400 250" clip-rule="nonzero"/></clipPath><clipPath id="c392988c1a"><path d="M 1339.839844 225.371094 L 1380.449219 187.542969 L 1441.28125 252.851562 L 1400.667969 290.679688 Z M 1339.839844 225.371094" clip-rule="nonzero"/></clipPath><clipPath id="7822852f9b"><path d="M 1339.839844 225.371094 L 1380.449219 187.542969 L 1441.28125 252.851562 L 1400.667969 290.679688 Z M 1339.839844 225.371094" clip-rule="nonzero"/></clipPath><clipPath id="0fe2775f6c"><path d="M 1359 213 L 1368 213 L 1368 240 L 1359 240 Z M 1359 213" clip-rule="nonzero"/></clipPath><clipPath id="271ec3834b"><path d="M 1339.839844 225.371094 L 1380.449219 187.542969 L 1441.28125 252.851562 L 1400.667969 290.679688 Z M 1339.839844 225.371094" clip-rule="nonzero"/></clipPath><clipPath id="28ea93d4f5"><path d="M 1339.839844 225.371094 L 1380.449219 187.542969 L 1441.28125 252.851562 L 1400.667969 290.679688 Z M 1339.839844 225.371094" clip-rule="nonzero"/></clipPath><clipPath id="9430eff3be"><path d="M 396.101562 201 L 438.257812 201 L 438.257812 303.78125 L 396.101562 303.78125 Z M 396.101562 201" clip-rule="nonzero"/></clipPath><clipPath id="9cc40ca7f6"><path d="M 424.292969 300.449219 C 422.152344 302.460938 419.703125 303.78125 417.308594 303.78125 C 414.914062 303.78125 412.609375 302.648438 410.484375 300.636719 C 410.441406 300.574219 410.394531 300.574219 410.347656 300.511719 C 402.371094 292.464844 396.496094 271.21875 396.382812 247.257812 L 396.382812 200.9375 L 438.257812 200.9375 L 438.257812 247.222656 C 438.144531 271.34375 432.359375 292.589844 424.292969 300.449219" clip-rule="nonzero"/></clipPath><clipPath id="8ae679fc0d"><path d="M 396.386719 148.035156 L 438.261719 148.035156 L 438.261719 189.910156 L 396.386719 189.910156 Z M 396.386719 148.035156" clip-rule="nonzero"/></clipPath><clipPath id="9d05cb2559"><path d="M 417.324219 148.035156 C 405.761719 148.035156 396.386719 157.410156 396.386719 168.972656 C 396.386719 180.535156 405.761719 189.910156 417.324219 189.910156 C 428.886719 189.910156 438.261719 180.535156 438.261719 168.972656 C 438.261719 157.410156 428.886719 148.035156 417.324219 148.035156" clip-rule="nonzero"/></clipPath></defs><rect width="1800" height="540" x="-150" y="-45" fill="#fff" fill-opacity="1"/><rect width="1800" height="540" x="-150" y="-45" fill="#fff" fill-opacity="1"/><rect width="1800" height="540" x="-150" y="-45" fill="#fff" fill-opacity="1"/><g clip-path="url(#4969ac8dcf)"><g clip-path="url(#2363aa9ba3)"><path fill="#fe9920" fill-opacity="1" fill-rule="nonzero" d="M 1325.960938 174.75 L 1455 174.75 L 1455 303.789062 L 1325.960938 303.789062 Z M 1325.960938 174.75"/></g></g><g clip-path="url(#cbef71835a)"><g clip-path="url(#638797b88e)"><g clip-path="url(#523773b6fe)"><path fill="#fff" fill-opacity="1" fill-rule="nonzero" d="M 1360.144531 206.457031 C 1365.75 201.234375 1372.929688 198.761719 1380 198.988281 C 1387.070312 199.214844 1394.039062 202.136719 1399.222656 207.703125 C 1404.410156 213.269531 1406.828125 220.425781 1406.554688 227.496094 C 1406.277344 234.566406 1403.300781 241.550781 1397.695312 246.773438 C 1392.089844 251.996094 1384.910156 254.464844 1377.839844 254.242188 C 1370.765625 254.015625 1363.800781 251.09375 1358.617188 245.527344 C 1353.429688 239.960938 1351.007812 232.804688 1351.285156 225.734375 C 1351.5625 218.664062 1354.539062 211.679688 1360.144531 206.457031 Z M 1379.824219 203.480469 C 1373.902344 203.292969 1367.890625 205.359375 1363.195312 209.734375 C 1358.5 214.109375 1356.011719 219.957031 1355.78125 225.878906 C 1355.546875 231.796875 1357.574219 237.789062 1361.917969 242.453125 C 1366.257812 247.113281 1372.09375 249.5625 1378.015625 249.75 C 1383.9375 249.9375 1389.949219 247.867188 1394.644531 243.496094 C 1399.339844 239.121094 1401.828125 233.273438 1402.058594 227.351562 C 1402.292969 221.429688 1400.265625 215.4375 1395.921875 210.777344 C 1391.582031 206.117188 1385.746094 203.667969 1379.824219 203.480469 Z M 1379.824219 203.480469"/></g></g></g><g clip-path="url(#554476470a)"><g clip-path="url(#ca5a23f51d)"><g clip-path="url(#8d4597abe8)"><path fill="#fff" fill-opacity="1" fill-rule="evenodd" d="M 1393.878906 247.109375 L 1398.304688 242.988281 L 1406.167969 251.429688 L 1401.742188 255.550781 Z M 1393.878906 247.109375"/></g></g></g><g clip-path="url(#38e2dcdc7b)"><g clip-path="url(#c392988c1a)"><g clip-path="url(#7822852f9b)"><path fill="#fff" fill-opacity="1" fill-rule="evenodd" d="M 1402.882812 252.34375 C 1405.363281 250.035156 1409.261719 250.160156 1411.554688 252.617188 L 1421.3125 263.097656 C 1423.605469 265.554688 1423.453125 269.457031 1420.976562 271.765625 C 1418.496094 274.070312 1414.597656 273.949219 1412.304688 271.488281 L 1402.542969 261.007812 C 1400.253906 258.550781 1400.40625 254.648438 1402.882812 252.34375 Z M 1402.882812 252.34375"/></g></g></g><g clip-path="url(#0fe2775f6c)"><g clip-path="url(#271ec3834b)"><g clip-path="url(#28ea93d4f5)"><path fill="#fff" fill-opacity="1" fill-rule="nonzero" d="M 1363.039062 238.273438 C 1360.371094 234.632812 1359.132812 230.289062 1359.300781 225.988281 C 1359.46875 221.691406 1361.042969 217.433594 1363.992188 213.972656 C 1364.386719 213.507812 1364.90625 213.257812 1365.515625 213.242188 C 1366.128906 213.226562 1366.65625 213.449219 1367.070312 213.894531 L 1367.324219 214.167969 C 1368.039062 214.933594 1368.0625 216.097656 1367.382812 216.902344 C 1365.125 219.566406 1363.921875 222.832031 1363.792969 226.132812 C 1363.664062 229.433594 1364.609375 232.769531 1366.652344 235.570312 C 1367.269531 236.414062 1367.152344 237.574219 1366.382812 238.292969 L 1366.105469 238.550781 C 1365.65625 238.96875 1365.113281 239.15625 1364.507812 239.101562 C 1363.898438 239.046875 1363.398438 238.765625 1363.039062 238.273438 Z M 1363.039062 238.273438"/></g></g></g><g clip-path="url(#9430eff3be)"><g clip-path="url(#9cc40ca7f6)"><path fill="#6e00be" fill-opacity="1" fill-rule="nonzero" d="M 438.257812 303.78125 L 396.101562 303.78125 L 396.101562 201.714844 L 438.257812 201.714844 Z M 438.257812 303.78125"/></g></g><g clip-path="url(#8ae679fc0d)"><g clip-path="url(#9d05cb2559)"><path fill="#6e00be" fill-opacity="1" fill-rule="nonzero" d="M 396.386719 148.035156 L 438.261719 148.035156 L 438.261719 189.910156 L 396.386719 189.910156 Z M 396.386719 148.035156"/></g></g><g fill="#6e00be" fill-opacity="1"><g><g><path d="M 74.65625 0 L 43.71875 0 L 43.71875 -120.171875 L 4.09375 -120.171875 L 4.09375 -145.921875 L 114.28125 -145.921875 L 114.28125 -120.171875 L 74.65625 -120.171875 Z M 74.65625 0" transform="translate(57.12841, 296.229784)"/></g></g><g><g><path d="M 78.25 -113.6875 C 82.375 -113.6875 85.800781 -113.382812 88.53125 -112.78125 L 86.234375 -84.234375 C 83.773438 -84.898438 80.78125 -85.234375 77.25 -85.234375 C 67.53125 -85.234375 59.957031 -82.738281 54.53125 -77.75 C 49.113281 -72.757812 46.40625 -65.773438 46.40625 -56.796875 L 46.40625 0 L 15.96875 0 L 15.96875 -111.578125 L 39.03125 -111.578125 L 43.515625 -92.828125 L 45.015625 -92.828125 C 48.472656 -99.078125 53.144531 -104.113281 59.03125 -107.9375 C 64.925781 -111.769531 71.332031 -113.6875 78.25 -113.6875 Z M 78.25 -113.6875" transform="translate(175.496179, 296.229784)"/></g></g><g><g><path d="M 86.828125 0 L 80.9375 -15.171875 L 80.140625 -15.171875 C 75.015625 -8.710938 69.738281 -4.234375 64.3125 -1.734375 C 58.894531 0.753906 51.828125 2 43.109375 2 C 32.398438 2 23.96875 -1.0625 17.8125 -7.1875 C 11.65625 -13.3125 8.578125 -22.023438 8.578125 -33.328125 C 8.578125 -45.179688 12.71875 -53.914062 21 -59.53125 C 29.289062 -65.15625 41.785156 -68.269531 58.484375 -68.875 L 77.84375 -69.46875 L 77.84375 -74.359375 C 77.84375 -85.671875 72.054688 -91.328125 60.484375 -91.328125 C 51.566406 -91.328125 41.085938 -88.628906 29.046875 -83.234375 L 18.96875 -103.796875 C 31.800781 -110.515625 46.039062 -113.875 61.6875 -113.875 C 76.65625 -113.875 88.128906 -110.613281 96.109375 -104.09375 C 104.097656 -97.570312 108.09375 -87.660156 108.09375 -74.359375 L 108.09375 0 Z M 77.84375 -51.703125 L 66.078125 -51.296875 C 57.222656 -51.035156 50.632812 -49.441406 46.3125 -46.515625 C 41.988281 -43.585938 39.828125 -39.128906 39.828125 -33.140625 C 39.828125 -24.554688 44.75 -20.265625 54.59375 -20.265625 C 61.644531 -20.265625 67.28125 -22.289062 71.5 -26.34375 C 75.726562 -30.40625 77.84375 -35.796875 77.84375 -42.515625 Z M 77.84375 -51.703125" transform="translate(268.314076, 296.229784)"/></g></g></g><g fill="#6e00be" fill-opacity="1"><g><g><path d="M 118.96875 0 L 88.53125 0 L 88.53125 -65.171875 C 88.53125 -73.222656 87.097656 -79.257812 84.234375 -83.28125 C 81.378906 -87.3125 76.820312 -89.328125 70.5625 -89.328125 C 62.039062 -89.328125 55.882812 -86.484375 52.09375 -80.796875 C 48.300781 -75.109375 46.40625 -65.675781 46.40625 -52.5 L 46.40625 0 L 15.96875 0 L 15.96875 -111.578125 L 39.21875 -111.578125 L 43.3125 -97.3125 L 45.015625 -97.3125 C 48.410156 -102.695312 53.082031 -106.769531 59.03125 -109.53125 C 64.988281 -112.300781 71.757812 -113.6875 79.34375 -113.6875 C 92.320312 -113.6875 102.171875 -110.175781 108.890625 -103.15625 C 115.609375 -96.132812 118.96875 -86.003906 118.96875 -72.765625 Z M 118.96875 0" transform="translate(444.867672, 296.229784)"/></g></g><g><g><path d="M 62.1875 -92.015625 C 55.726562 -92.015625 50.664062 -89.96875 47 -85.875 C 43.34375 -81.789062 41.25 -75.988281 40.71875 -68.46875 L 83.4375 -68.46875 C 83.300781 -75.988281 81.335938 -81.789062 77.546875 -85.875 C 73.753906 -89.96875 68.632812 -92.015625 62.1875 -92.015625 Z M 66.46875 2 C 48.507812 2 34.472656 -2.957031 24.359375 -12.875 C 14.242188 -22.789062 9.1875 -36.832031 9.1875 -55 C 9.1875 -73.695312 13.859375 -88.148438 23.203125 -98.359375 C 32.554688 -108.578125 45.484375 -113.6875 61.984375 -113.6875 C 77.753906 -113.6875 90.03125 -109.191406 98.8125 -100.203125 C 107.59375 -91.222656 111.984375 -78.816406 111.984375 -62.984375 L 111.984375 -48.203125 L 40.015625 -48.203125 C 40.347656 -39.554688 42.910156 -32.800781 47.703125 -27.9375 C 52.492188 -23.082031 59.21875 -20.65625 67.875 -20.65625 C 74.59375 -20.65625 80.945312 -21.351562 86.9375 -22.75 C 92.925781 -24.15625 99.179688 -26.382812 105.703125 -29.4375 L 105.703125 -5.890625 C 100.378906 -3.222656 94.6875 -1.242188 88.625 0.046875 C 82.570312 1.347656 75.1875 2 66.46875 2 Z M 66.46875 2" transform="translate(579.204111, 296.229784)"/></g></g></g><g fill="#6e00be" fill-opacity="1"><g><g><path d="M 78.25 -113.6875 C 82.375 -113.6875 85.800781 -113.382812 88.53125 -112.78125 L 86.234375 -84.234375 C 83.773438 -84.898438 80.78125 -85.234375 77.25 -85.234375 C 67.53125 -85.234375 59.957031 -82.738281 54.53125 -77.75 C 49.113281 -72.757812 46.40625 -65.773438 46.40625 -56.796875 L 46.40625 0 L 15.96875 0 L 15.96875 -111.578125 L 39.03125 -111.578125 L 43.515625 -92.828125 L 45.015625 -92.828125 C 48.472656 -99.078125 53.144531 -104.113281 59.03125 -107.9375 C 64.925781 -111.769531 71.332031 -113.6875 78.25 -113.6875 Z M 78.25 -113.6875" transform="translate(699.96721, 296.229784)"/></g></g></g><g fill="#fe9920" fill-opacity="1"><g><g><path d="M 139.4375 -74.359375 C 139.4375 -50.335938 132.597656 -31.9375 118.921875 -19.15625 C 105.242188 -6.382812 85.5 0 59.6875 0 L 18.359375 0 L 18.359375 -145.921875 L 64.171875 -145.921875 C 87.992188 -145.921875 106.492188 -139.628906 119.671875 -127.046875 C 132.847656 -114.472656 139.4375 -96.910156 139.4375 -74.359375 Z M 107.296875 -73.5625 C 107.296875 -104.894531 93.453125 -120.5625 65.765625 -120.5625 L 49.3125 -120.5625 L 49.3125 -25.546875 L 62.578125 -25.546875 C 92.390625 -25.546875 107.296875 -41.550781 107.296875 -73.5625 Z M 107.296875 -73.5625" transform="translate(792.780497, 296.229784)"/></g></g><g><g><path d="M 62.1875 -92.015625 C 55.726562 -92.015625 50.664062 -89.96875 47 -85.875 C 43.34375 -81.789062 41.25 -75.988281 40.71875 -68.46875 L 83.4375 -68.46875 C 83.300781 -75.988281 81.335938 -81.789062 77.546875 -85.875 C 73.753906 -89.96875 68.632812 -92.015625 62.1875 -92.015625 Z M 66.46875 2 C 48.507812 2 34.472656 -2.957031 24.359375 -12.875 C 14.242188 -22.789062 9.1875 -36.832031 9.1875 -55 C 9.1875 -73.695312 13.859375 -88.148438 23.203125 -98.359375 C 32.554688 -108.578125 45.484375 -113.6875 61.984375 -113.6875 C 77.753906 -113.6875 90.03125 -109.191406 98.8125 -100.203125 C 107.59375 -91.222656 111.984375 -78.816406 111.984375 -62.984375 L 111.984375 -48.203125 L 40.015625 -48.203125 C 40.347656 -39.554688 42.910156 -32.800781 47.703125 -27.9375 C 52.492188 -23.082031 59.21875 -20.65625 67.875 -20.65625 C 74.59375 -20.65625 80.945312 -21.351562 86.9375 -22.75 C 92.925781 -24.15625 99.179688 -26.382812 105.703125 -29.4375 L 105.703125 -5.890625 C 100.378906 -3.222656 94.6875 -1.242188 88.625 0.046875 C 82.570312 1.347656 75.1875 2 66.46875 2 Z M 66.46875 2" transform="translate(944.08365, 296.229784)"/></g></g><g><g><path d="M 45.21875 -60.6875 L 58.484375 -77.65625 L 89.734375 -111.578125 L 124.0625 -111.578125 L 79.75 -63.171875 L 126.75 0 L 91.625 0 L 59.484375 -45.21875 L 46.40625 -34.734375 L 46.40625 0 L 15.96875 0 L 15.96875 -155.296875 L 46.40625 -155.296875 L 46.40625 -86.03125 L 44.8125 -60.6875 Z M 45.21875 -60.6875" transform="translate(1064.846719, 296.229784)"/></g></g><g><g><path d="M 118.96875 0 L 88.53125 0 L 88.53125 -65.171875 C 88.53125 -81.273438 82.539062 -89.328125 70.5625 -89.328125 C 62.039062 -89.328125 55.882812 -86.429688 52.09375 -80.640625 C 48.300781 -74.859375 46.40625 -65.476562 46.40625 -52.5 L 46.40625 0 L 15.96875 0 L 15.96875 -155.296875 L 46.40625 -155.296875 L 46.40625 -123.65625 C 46.40625 -121.195312 46.175781 -115.410156 45.71875 -106.296875 L 45.015625 -97.3125 L 46.609375 -97.3125 C 53.398438 -108.226562 64.179688 -113.6875 78.953125 -113.6875 C 92.054688 -113.6875 102 -110.15625 108.78125 -103.09375 C 115.570312 -96.039062 118.96875 -85.929688 118.96875 -72.765625 Z M 118.96875 0" transform="translate(1191.598041, 296.229784)"/></g></g></g></svg>